# xmcd
#
# Track frame offsets: 
#        150
#        12002
#        28420
#        43287
#        56125
#        68500
#        81100
#        95475
#        108847
#        123245
#        138537
#        153432
#        168615
#        184217
#        199197
#        214690
#        229412
#
# Disc length: 3235 seconds
#
# Revision: 6
# Processed by: cddbd v1.5.2PL0 Copyright (c) Steve Scherf et al.
# Submitted via: ExactAudioCopyFreeDBPlugin 1.0
#
DISCID=f20ca111
DTITLE=Various Artist - Tampa Red The Guitar Wizard ～スライドギターの魔術師～
DYEAR=1994
DGENRE=Blues
TTITLE0=Papa Too Sweet and Harry Jones - (Honey) It's Tight Like That
TTITLE1=Papa Too Sweet and Harry Jones - Big Fat Mama
TTITLE2=Tampa Red and Georgia Tom - No Matter How She Done It
TTITLE3=Tampa Red, "Guitar Wizard" and Georgia Tom - Reckless Man Blues
TTITLE4=Tampa Red and Georgia Tom - Don't Leave Me Here
TTITLE5=Tampa Red and Georgia Tom - Dead Cats On The Line
TTITLE6=Tampa Red, "Guitar Wizard" and Georgia Tom - Things 'Bout Comin'
TTITLE6=My Way No.2
TTITLE7=Tampa Red and Georgia Tom - You Can't Get That Stuff No More
TTITLE8=Tampa Red and Georgia Tom - If You Want Me To Love You
TTITLE9=Tampa Red, "Guitar Wizard" - Turpentine Blues
TTITLE10=Tampa Red, "Guitar Wizard" - Western Bound Blues
TTITLE11=Tampa Red - That Stuff Is Here
TTITLE12=Tampa Red - Sugar Mama Blues No 1
TTITLE13=Tampa Red - Sugar Mama Blues No 2
TTITLE14=Tampa Red - Black Angel Blues
TTITLE15=Tampa Red - Things 'Bout Comin' My Way
TTITLE16=Tampa Red - Denver Blues
EXTD=YEAR: 1994
EXTT0=
EXTT1=
EXTT2=
EXTT3=
EXTT4=
EXTT5=
EXTT6=
EXTT7=
EXTT8=
EXTT9=
EXTT10=
EXTT11=
EXTT12=
EXTT13=
EXTT14=
EXTT15=
EXTT16=
PLAYORDER=
